<?xml version="1.0" standalone="no"?>
<!DOCTYPE svg PUBLIC "-//W3C//DTD SVG 20010904//EN"
 "http://www.w3.org/TR/2001/REC-SVG-20010904/DTD/svg10.dtd">
<svg version="1.0" xmlns="http://www.w3.org/2000/svg"
 width="316.000000pt" height="316.000000pt" viewBox="0 0 316.000000 316.000000"
 preserveAspectRatio="xMidYMid meet">
<metadata>
Created by potrace 1.15, written by Peter Selinger 2001-2017
</metadata>
<g transform="translate(0.000000,316.000000) scale(0.100000,-0.100000)"
fill="#000000" stroke="none">
<path d="M1355 2644 c-302 -29 -473 -57 -670 -109 -141 -37 -377 -116 -438
-147 -70 -35 -68 -6 -65 -792 3 -688 3 -704 23 -726 25 -28 75 -50 238 -106
243 -84 501 -139 790 -170 188 -20 620 -14 797 10 271 38 571 111 777 190 130
50 149 61 162 97 17 48 15 1415 -2 1449 -16 34 -111 79 -282 134 -228 74 -421
117 -687 152 -107 14 -555 27 -643 18z m455 -54 c350 -25 676 -93 975 -205
157 -58 140 36 142 -763 2 -533 0 -692 -10 -711 -34 -67 -512 -204 -897 -258
-178 -25 -690 -25 -875 0 -324 44 -707 145 -875 232 l-30 16 2 712 3 712 55
27 c30 15 123 49 205 77 408 134 871 191 1305 161z"/>
<path d="M1355 2564 c-230 -19 -478 -60 -683 -115 -149 -39 -367 -118 -392
-141 -20 -18 -20 -33 -20 -691 0 -523 3 -677 12 -690 41 -54 429 -171 733
-222 233 -39 384 -48 659 -42 269 6 392 19 630 68 239 49 554 151 589 191 16
19 17 67 17 692 0 522 -3 676 -12 689 -16 21 -187 86 -346 131 -299 87 -567
125 -902 130 -129 2 -257 2 -285 0z m461 -95 c11 -13 19 -35 19 -59 0 -48 -27
-80 -68 -80 -44 0 -67 25 -67 74 0 23 7 52 16 64 20 29 74 30 100 1z m165
-214 c244 -27 554 -89 584 -116 5 -5 -241 -8 -590 -7 l-600 3 0 65 0 65 35 7
c55 11 413 0 571 -17z m-681 -325 l0 -340 370 0 370 0 0 -145 0 -145 -455 0
-455 0 0 25 0 25 375 0 375 0 0 95 0 95 -375 0 -375 0 0 295 0 295 -265 0
c-146 0 -265 4 -265 9 0 20 343 89 573 116 61 7 115 13 120 14 4 0 7 -152 7
-339z m-240 -130 l0 -260 -275 0 -275 0 0 260 0 260 275 0 275 0 0 -260z
m1590 235 l0 -25 -565 0 -565 0 0 -155 0 -155 260 0 c253 0 260 -1 260 -20 0
-20 -7 -20 -333 -20 l-333 0 -3 190 c-1 104 0 194 4 200 4 7 221 10 641 10
l634 0 0 -25z m0 -115 c0 -20 -7 -20 -530 -20 -523 0 -530 0 -530 20 0 20 7
20 530 20 523 0 530 0 530 -20z m0 -120 c0 -20 -7 -20 -530 -20 -523 0 -530 0
-530 20 0 20 7 20 530 20 523 0 530 0 530 -20z m0 -120 c0 -20 -7 -20 -270
-20 -263 0 -270 0 -270 20 0 20 7 20 270 20 263 0 270 0 270 -20z m0 -296 c0
-116 -4 -213 -10 -224 -18 -34 -212 -86 -502 -135 l-28 -4 0 79 0 80 -797 2
-798 3 -3 143 -3 142 651 0 650 0 0 -25 0 -25 -375 0 -375 0 0 -95 0 -95 525
0 525 0 0 180 0 180 270 0 270 0 0 -206z m-610 -323 l0 -48 -53 -6 c-347 -41
-778 -23 -1132 48 -267 54 -278 53 488 54 l697 1 0 -49z m240 -133 c25 -27 27
-94 3 -120 -9 -11 -30 -18 -50 -18 -27 0 -37 6 -54 33 -23 37 -20 94 8 114 26
20 70 15 93 -9z m-454 -51 c37 -32 40 -100 5 -128 -44 -36 -95 -19 -110 37
-12 43 -1 76 31 98 30 21 42 20 74 -7z"/>
</g>
</svg>
